<?xml version="1.0" standalone="no"?>
<!DOCTYPE svg PUBLIC "-//W3C//DTD SVG 20010904//EN"
 "http://www.w3.org/TR/2001/REC-SVG-20010904/DTD/svg10.dtd">
<svg version="1.0" xmlns="http://www.w3.org/2000/svg"
 width="225.000000pt" height="225.000000pt" viewBox="0 0 225.000000 225.000000"
 preserveAspectRatio="xMidYMid meet">
<metadata>
Created by potrace 1.11, written by Peter Selinger 2001-2013
</metadata>
<g transform="translate(0.000000,225.000000) scale(0.100000,-0.100000)"
fill="#000000" stroke="none">
<path d="M0 1125 l0 -1125 1125 0 1125 0 0 1125 0 1125 -1125 0 -1125 0 0
-1125z m1415 501 c164 -43 260 -145 285 -303 12 -69 13 -353 3 -353 -5 0 -49
19 -100 42 -84 40 -91 45 -91 71 2 44 -16 54 -58 33 -55 -26 -63 -5 -12 29
101 66 192 141 216 178 l26 39 -22 19 c-31 24 -123 34 -186 20 -28 -6 -92 -32
-143 -56 -87 -42 -93 -44 -120 -30 -63 33 -146 12 -202 -52 l-41 -46 -62 7
c-35 4 -112 14 -172 22 -107 16 -109 16 -137 -5 -15 -12 -31 -21 -34 -21 -3 0
-5 86 -5 190 l0 190 195 0 195 0 0 -45 0 -45 49 35 c116 84 284 117 416 81z
m174 -250 c-2 -2 -46 -21 -97 -41 -51 -21 -132 -62 -179 -92 -74 -46 -93 -54
-127 -51 l-41 3 65 43 c125 83 266 140 349 141 19 1 32 -1 30 -3z m-507 -191
c4 -18 -1 -29 -17 -39 -36 -24 -50 11 -18 46 22 24 30 23 35 -7z m-372 -24
c108 -29 210 -67 210 -80 0 -3 -30 -26 -66 -49 l-66 -44 -73 32 c-60 26 -77
30 -94 21 -29 -16 -26 -29 11 -68 l31 -32 -51 2 -52 2 0 128 c0 118 1 128 18
123 9 -3 69 -19 132 -35z m284 -122 c-12 -20 -225 -119 -256 -119 -24 0 -42
10 -70 37 -61 59 -43 71 42 28 27 -14 60 -25 72 -25 13 0 59 22 102 49 47 29
86 47 97 44 10 -3 16 -9 13 -14z m546 -103 c93 -21 108 -22 132 -10 15 8 29
14 33 14 3 0 5 -79 5 -175 l0 -175 -195 0 -195 0 0 191 0 192 58 -6 c31 -4
104 -18 162 -31z m-909 -37 c24 -6 52 -21 61 -32 12 -13 25 -17 41 -13 12 3
47 -1 77 -9 66 -18 90 -19 90 -4 0 7 -8 18 -17 25 -19 13 -14 17 55 38 l22 7
0 -155 0 -156 -200 0 -200 0 0 161 c0 134 2 160 14 156 8 -3 34 -11 57 -18z"/>
</g>
</svg>
